<?xml version="1.0" encoding="UTF-8" standalone="no"?>
<!-- Created with Inkscape (http://www.inkscape.org/) -->

<svg
   xmlns:dc="http://purl.org/dc/elements/1.1/"
   xmlns:cc="http://creativecommons.org/ns#"
   xmlns:rdf="http://www.w3.org/1999/02/22-rdf-syntax-ns#"
   xmlns:svg="http://www.w3.org/2000/svg"
   xmlns="http://www.w3.org/2000/svg"
   xmlns:xlink="http://www.w3.org/1999/xlink"
   xmlns:sodipodi="http://sodipodi.sourceforge.net/DTD/sodipodi-0.dtd"
   xmlns:inkscape="http://www.inkscape.org/namespaces/inkscape"
   width="210mm"
   height="297mm"
   viewBox="0 0 210 297"
   version="1.1"
   id="svg8"
   inkscape:version="0.92.4 (5da689c313, 2019-01-14)"
   sodipodi:docname="combi psu 64 logo fusion360.svg"
   inkscape:export-filename="X:\Projekte\_Eigene\C64-Projects\C64 Combi PSU\Rev. 0\logo\combi psu 64 logo big.png"
   inkscape:export-xdpi="299.71991"
   inkscape:export-ydpi="299.71991">
  <defs
     id="defs2" />
  <sodipodi:namedview
     id="base"
     pagecolor="#ffffff"
     bordercolor="#666666"
     borderopacity="1.0"
     inkscape:pageopacity="0.0"
     inkscape:pageshadow="2"
     inkscape:zoom="4.8685407"
     inkscape:cx="144.46521"
     inkscape:cy="1057.7338"
     inkscape:document-units="mm"
     inkscape:current-layer="layer1"
     showgrid="false"
     inkscape:window-width="2560"
     inkscape:window-height="1411"
     inkscape:window-x="-9"
     inkscape:window-y="-9"
     inkscape:window-maximized="1"
     showguides="true"
     inkscape:guide-bbox="true">
    <sodipodi:guide
       position="43.15711,247.9809"
       orientation="0,1"
       id="guide4887"
       inkscape:locked="false" />
  </sodipodi:namedview>
  <metadata
     id="metadata5">
    <rdf:RDF>
      <cc:Work
         rdf:about="">
        <dc:format>image/svg+xml</dc:format>
        <dc:type
           rdf:resource="http://purl.org/dc/dcmitype/StillImage" />
        <dc:title />
      </cc:Work>
    </rdf:RDF>
  </metadata>
  <g
     inkscape:label="Ebene 1"
     inkscape:groupmode="layer"
     id="layer1">
    <g
       id="g4934"
       transform="translate(-16.249308,-16.792763)">
      <g
         id="text4753"
         style="font-style:normal;font-variant:normal;font-weight:bold;font-stretch:normal;font-size:3.3060441px;line-height:1;font-family:'Microgramma D Extended';-inkscape-font-specification:'Microgramma D Extended Bold';font-variant-ligatures:normal;font-variant-caps:normal;font-variant-numeric:normal;text-align:start;letter-spacing:0px;word-spacing:0px;writing-mode:lr-tb;text-anchor:start;fill:#000000;fill-opacity:1;stroke:none;stroke-width:0.10286904"
         transform="matrix(2.5640453,0,0,2.5800601,15.415479,-745.14441)"
         aria-label="PSU 64">
        <path
           inkscape:connector-curvature="0"
           id="path4769"
           style="stroke-width:0.10286904"
           d="m 4.2775974,298.68619 h 0.671127 v -0.53889 h 0.8463473 c 0.4760703,0 0.6248423,-0.0132 0.7736143,-0.0628 0.2644835,-0.0959 0.3537467,-0.28763 0.3537467,-0.77692 0,-0.56534 -0.1190176,-0.74386 -0.5355791,-0.80668 -0.1223237,-0.0165 -0.1818325,-0.0198 -0.598394,-0.0198 H 4.2775974 Z m 0.671127,-1.091 v -0.56202 h 0.8397352 c 0.2942379,0.003 0.30085,0.003 0.3471346,0.0198 0.085957,0.0298 0.1157116,0.0959 0.1157116,0.25457 0,0.15208 -0.019836,0.21158 -0.082651,0.25126 -0.056203,0.0331 -0.069427,0.0331 -0.3801951,0.0364 z" />
        <path
           inkscape:connector-curvature="0"
           id="path4771"
           style="stroke-width:0.10286904"
           d="m 7.0652124,297.95555 v 0.1058 c 0,0.30415 0.049591,0.43309 0.2016687,0.52896 0.1553841,0.0992 0.4231737,0.12894 1.1075248,0.12894 0.6579028,0 0.9356105,-0.0165 1.0678522,-0.0661 0.2281171,-0.086 0.3206863,-0.2744 0.3206863,-0.65791 0,-0.30746 -0.056203,-0.45623 -0.2082808,-0.55541 -0.1421599,-0.0893 -0.2843198,-0.10579 -1.0116495,-0.12894 -0.4661522,-0.0132 -0.6479846,-0.0231 -0.7074934,-0.0397 -0.069427,-0.0165 -0.099181,-0.0595 -0.099181,-0.14216 0,-0.162 0.046285,-0.17522 0.6149242,-0.17522 0.4760703,0 0.5587214,0.007 0.6149242,0.0397 0.049591,0.0298 0.059509,0.0595 0.066121,0.18184 h 0.6479846 c 0.00331,-0.043 0.00331,-0.0893 0.00331,-0.10249 0,-0.26118 -0.052897,-0.40003 -0.1851385,-0.4893 -0.1553841,-0.10579 -0.3868072,-0.13554 -1.0281797,-0.13554 -0.5289671,0 -0.8331231,0.0132 -0.9620589,0.0397 -0.304156,0.0661 -0.4231736,0.25456 -0.4231736,0.67443 0,0.48599 0.152078,0.62484 0.6975753,0.64137 l 0.1785264,0.007 0.3570527,0.0165 0.5289671,0.0198 c 0.2148929,0.003 0.2644835,0.0364 0.2644835,0.16861 0,0.19506 0,0.19506 -0.7207176,0.19506 -0.4727643,0 -0.5454973,-0.007 -0.6083121,-0.0463 -0.052897,-0.0331 -0.066121,-0.076 -0.066121,-0.20828 z" />
        <path
           inkscape:connector-curvature="0"
           id="path4773"
           style="stroke-width:0.10286904"
           d="m 9.9853792,296.48106 v 1.01495 c 0.00331,0.35705 0.00331,0.35705 0.00661,0.42979 0.01653,0.32399 0.052897,0.45954 0.1619958,0.57194 0.165303,0.17522 0.429786,0.22151 1.272827,0.22151 0.512437,0 0.733942,-0.0132 0.932305,-0.0529 0.251259,-0.0529 0.419867,-0.22812 0.456234,-0.47937 0.01984,-0.15539 0.02314,-0.19176 0.03306,-0.69097 v -1.01495 h -0.671127 v 1.01495 c 0,0.0463 -0.0033,0.15208 -0.0066,0.22812 -0.0099,0.20828 -0.02645,0.26779 -0.07935,0.32399 -0.07273,0.0794 -0.211587,0.0992 -0.674433,0.0992 -0.571945,0 -0.700881,-0.0364 -0.737248,-0.21158 -0.01653,-0.0893 -0.01653,-0.0926 -0.02314,-0.43971 v -1.01495 z" />
        <path
           inkscape:connector-curvature="0"
           id="path4775"
           style="stroke-width:0.10286904"
           d="m 16.607799,297.09929 c -0.0033,-0.28102 -0.02645,-0.3835 -0.105794,-0.46616 -0.128935,-0.13885 -0.376889,-0.17852 -1.127361,-0.17852 -0.995119,0 -1.249684,0.0827 -1.329029,0.43309 -0.03306,0.14547 -0.03967,0.25787 -0.03967,0.62484 0,0.73394 0.02645,0.88602 0.17522,1.02488 0.148772,0.13554 0.376889,0.17522 1.01165,0.17522 0.681045,0 0.945529,-0.0165 1.087688,-0.0727 0.228117,-0.086 0.310769,-0.26448 0.310769,-0.66121 0,-0.59508 -0.185139,-0.72071 -1.051322,-0.72071 -0.578558,0 -0.724024,0.0331 -0.892632,0.19505 -0.0033,-0.0529 -0.0033,-0.0959 -0.0033,-0.12232 0,-0.21159 0.02314,-0.29093 0.09257,-0.3273 0.07273,-0.0331 0.251259,-0.0496 0.575252,-0.0496 0.105793,0 0.231423,0.003 0.373583,0.01 0.204974,0.007 0.224811,0.01 0.257871,0.0364 0.02314,0.0165 0.03306,0.0397 0.03637,0.0992 z m -1.388539,0.65459 c 0.687657,0 0.720718,0.01 0.720718,0.23473 0,0.14216 -0.04628,0.20167 -0.161996,0.21159 -0.06943,0.007 -0.376889,0.0165 -0.575252,0.0165 -0.221505,0 -0.366971,-0.007 -0.416561,-0.0198 -0.09257,-0.0198 -0.128936,-0.0827 -0.128936,-0.21158 0,-0.0992 0.03637,-0.16861 0.105793,-0.19837 0.06282,-0.0264 0.138854,-0.0331 0.456234,-0.0331 z" />
        <path
           inkscape:connector-curvature="0"
           id="path4777"
           style="stroke-width:0.10286904"
           d="m 19.718167,297.78033 h -0.429786 v -1.29927 h -1.087689 l -1.309193,0.95214 v 0.84304 h 1.758815 v 0.40995 h 0.638067 v -0.40995 h 0.429786 z m -1.067853,0 h -1.157115 v -0.086 l 1.021568,-0.70088 h 0.135547 z" />
      </g>
      <g
         transform="translate(7.5884135,-32.098446)"
         id="g4905">
        <g
           aria-label="COMBI"
           transform="matrix(2.5640453,0,0,2.5800601,7.7712829,-713.04599)"
           style="font-style:normal;font-variant:normal;font-weight:bold;font-stretch:normal;font-size:3.3060441px;line-height:1;font-family:'Microgramma D Extended';-inkscape-font-specification:'Microgramma D Extended Bold';font-variant-ligatures:normal;font-variant-caps:normal;font-variant-numeric:normal;text-align:start;letter-spacing:0px;word-spacing:0px;writing-mode:lr-tb;text-anchor:start;fill:none;fill-opacity:1;stroke:#000000;stroke-width:0.03887964;stroke-miterlimit:4;stroke-dasharray:none;stroke-opacity:1"
           id="text4749-0">
          <path
             sodipodi:type="inkscape:offset"
             inkscape:radius="0"
             inkscape:original="M 1.9003906 295.2168 C 0.74658127 295.2168 0.50573634 295.27276 0.38671875 295.57031 C 0.33712805 295.69263 0.32226563 295.87459 0.32226562 296.36719 C 0.32226562 296.6482 0.32992555 296.82855 0.33984375 296.92773 C 0.36629215 297.15254 0.43265902 297.27673 0.578125 297.35938 C 0.75665138 297.46186 1.0336069 297.48828 1.8964844 297.48828 C 2.3857789 297.48828 2.6281142 297.46831 2.8066406 297.41211 C 3.0512879 297.33271 3.1425781 297.16955 3.1425781 296.8125 C 3.1425781 296.7794 3.1400188 296.73105 3.1367188 296.60547 L 2.4628906 296.60547 C 2.4595806 296.93277 2.4481855 296.93555 1.7109375 296.93555 C 1.0034441 296.93555 0.99414063 296.92823 0.99414062 296.36328 C 0.99414062 296.02937 1.0202642 295.9001 1.0996094 295.83398 C 1.1657304 295.78108 1.2891168 295.76758 1.7089844 295.76758 C 2.132158 295.76758 2.3273624 295.78708 2.3769531 295.83008 C 2.4166261 295.86318 2.4230755 295.89358 2.4296875 296.03906 L 3.0996094 296.03906 L 3.0996094 295.92969 C 3.0996094 295.57594 3.0341475 295.41424 2.8457031 295.31836 C 2.6936251 295.23906 2.4888665 295.2168 1.9003906 295.2168 z "
             style="fill:none;stroke:#000000;stroke-width:0.03887964;stroke-miterlimit:4;stroke-dasharray:none;stroke-opacity:1"
             id="path4758-2"
             d="m 1.9003906,295.2168 c -1.15380933,0 -1.39465426,0.056 -1.51367185,0.35351 -0.0495907,0.12232 -0.0644531,0.30428 -0.0644531,0.79688 0,0.28101 0.00766,0.46136 0.0175781,0.56054 0.0264484,0.22481 0.0928153,0.349 0.23828125,0.43165 0.17852638,0.10248 0.4554819,0.1289 1.3183594,0.1289 0.4892945,0 0.7316298,-0.02 0.9101562,-0.0762 0.2446473,-0.0794 0.3359375,-0.24256 0.3359375,-0.59961 0,-0.0331 -0.00256,-0.0815 -0.00586,-0.20703 H 2.4628906 c -0.00331,0.3273 -0.014705,0.33008 -0.7519531,0.33008 -0.7074934,0 -0.71679687,-0.007 -0.71679688,-0.57227 0,-0.33391 0.0261236,-0.46318 0.10546878,-0.5293 0.066121,-0.0529 0.1895074,-0.0664 0.609375,-0.0664 0.4231736,0 0.618378,0.0195 0.6679687,0.0625 0.039673,0.0331 0.046122,0.0635 0.052734,0.20898 h 0.6699219 v -0.10937 c 0,-0.35375 -0.065462,-0.51545 -0.2539063,-0.61133 -0.152078,-0.0793 -0.3568366,-0.10156 -0.9453125,-0.10156 z" />
          <path
             d="m 4.8526161,295.21609 c -0.9223863,0 -1.127361,0.0231 -1.2959693,0.15208 -0.1686082,0.12894 -0.2181989,0.35375 -0.2181989,0.96867 0,0.64799 0.046285,0.86619 0.2181989,0.99843 0.1686083,0.12893 0.373583,0.15208 1.3025814,0.15208 0.9124682,0 1.120749,-0.0231 1.2893572,-0.15208 0.1686083,-0.12894 0.2181989,-0.35044 0.2181989,-0.9852 0,-0.63146 -0.049591,-0.85296 -0.2181989,-0.9819 -0.1686082,-0.12893 -0.373583,-0.15208 -1.2959693,-0.15208 z m 0,0.57195 c 0.6149242,0 0.6876572,0.01 0.7636962,0.0992 0.059509,0.0727 0.079345,0.19836 0.079345,0.52566 0,0.26779 -0.023142,0.36367 -0.099181,0.42317 -0.089263,0.0661 -0.1983627,0.0793 -0.7372479,0.0793 -0.5554154,0 -0.6612088,-0.01 -0.750472,-0.0793 -0.079345,-0.0628 -0.099181,-0.15207 -0.099181,-0.42648 0,-0.28101 0.013224,-0.40664 0.052897,-0.48268 0.066121,-0.12893 0.1289357,-0.13885 0.7901445,-0.13885 z"
             style="fill:none;stroke:#000000;stroke-width:0.03887964;stroke-miterlimit:4;stroke-dasharray:none;stroke-opacity:1"
             id="path4760-0"
             inkscape:connector-curvature="0" />
          <path
             d="m 6.6326626,295.24915 v 2.20513 h 0.6612088 l -0.01653,-1.64971 H 7.396359 l 0.8298171,1.64971 h 0.5587214 l 0.8298171,-1.64971 h 0.1124055 l -0.01653,1.64971 h 0.6612079 v -2.20513 H 9.1617863 l -0.6579027,1.43152 -0.6545968,-1.43152 z"
             style="fill:none;stroke:#000000;stroke-width:0.03887964;stroke-miterlimit:4;stroke-dasharray:none;stroke-opacity:1"
             id="path4762-4"
             inkscape:connector-curvature="0" />
          <path
             d="m 10.681275,297.45428 h 1.586901 c 0.740554,-0.003 0.776921,-0.007 0.90255,-0.0496 0.195057,-0.0661 0.277708,-0.22811 0.277708,-0.54219 0,-0.35374 -0.08926,-0.48268 -0.380195,-0.53227 0.221505,-0.0628 0.297544,-0.19175 0.297544,-0.50583 0,-0.40003 -0.119018,-0.53888 -0.479376,-0.56533 -0.09918,-0.007 -0.09918,-0.007 -0.621537,-0.01 h -1.583595 z m 0.638067,-1.33564 v -0.35044 h 0.945528 c 0.304156,0.003 0.314075,0.003 0.350441,0.01 0.06943,0.0165 0.09918,0.0661 0.09918,0.15869 0,0.0794 -0.02314,0.13555 -0.07273,0.15538 -0.04298,0.0198 -0.138854,0.0265 -0.376889,0.0265 z m 0,0.80668 v -0.36697 h 0.948834 c 0.390114,0.003 0.390114,0.003 0.423174,0.01 0.07604,0.0165 0.105793,0.0628 0.105793,0.16531 0,0.0926 -0.02314,0.14216 -0.07935,0.1653 -0.04959,0.0231 -0.04959,0.0231 -0.449622,0.0265 z"
             style="fill:none;stroke:#000000;stroke-width:0.03887964;stroke-miterlimit:4;stroke-dasharray:none;stroke-opacity:1"
             id="path4764-2"
             inkscape:connector-curvature="0" />
          <path
             d="m 13.683835,295.24915 v 2.20513 h 0.704187 v -2.20513 z"
             style="fill:none;stroke:#000000;stroke-width:0.03887964;stroke-miterlimit:4;stroke-dasharray:none;stroke-opacity:1"
             id="path4766-1"
             inkscape:connector-curvature="0" />
        </g>
        <g
           aria-label="COMBI"
           transform="matrix(2.5640453,0,0,2.5800601,7.7712829,-713.04599)"
           style="font-style:normal;font-variant:normal;font-weight:bold;font-stretch:normal;font-size:3.3060441px;line-height:1;font-family:'Microgramma D Extended';-inkscape-font-specification:'Microgramma D Extended Bold';font-variant-ligatures:normal;font-variant-caps:normal;font-variant-numeric:normal;text-align:start;letter-spacing:0px;word-spacing:0px;writing-mode:lr-tb;text-anchor:start;fill:none;fill-opacity:1;stroke:#000000;stroke-width:0.03887964;stroke-miterlimit:4;stroke-dasharray:none;stroke-opacity:1"
           id="text4749-0-1">
          <path
             sodipodi:type="inkscape:offset"
             inkscape:radius="-0.10626788"
             inkscape:original="M 1.9003906 295.2168 C 0.74658127 295.2168 0.50573634 295.27276 0.38671875 295.57031 C 0.33712805 295.69263 0.32226563 295.87459 0.32226562 296.36719 C 0.32226562 296.6482 0.32992555 296.82855 0.33984375 296.92773 C 0.36629215 297.15254 0.43265902 297.27673 0.578125 297.35938 C 0.75665138 297.46186 1.0336069 297.48828 1.8964844 297.48828 C 2.3857789 297.48828 2.6281142 297.46831 2.8066406 297.41211 C 3.0512879 297.33271 3.1425781 297.16955 3.1425781 296.8125 C 3.1425781 296.7794 3.1400188 296.73105 3.1367188 296.60547 L 2.4628906 296.60547 C 2.4595806 296.93277 2.4481855 296.93555 1.7109375 296.93555 C 1.0034441 296.93555 0.99414063 296.92823 0.99414062 296.36328 C 0.99414062 296.02937 1.0202642 295.9001 1.0996094 295.83398 C 1.1657304 295.78108 1.2891168 295.76758 1.7089844 295.76758 C 2.132158 295.76758 2.3273624 295.78708 2.3769531 295.83008 C 2.4166261 295.86318 2.4230755 295.89358 2.4296875 296.03906 L 3.0996094 296.03906 L 3.0996094 295.92969 C 3.0996094 295.57594 3.0341475 295.41424 2.8457031 295.31836 C 2.6936251 295.23906 2.4888665 295.2168 1.9003906 295.2168 z "
             style="fill:none;stroke:#000000;stroke-width:0.03887964;stroke-miterlimit:4;stroke-dasharray:none;stroke-opacity:1"
             id="path4758-2-2"
             d="m 1.9003906,295.32227 c -0.5751866,0 -0.92188085,0.016 -1.12109372,0.0625 -0.19921288,0.0465 -0.24178648,0.0967 -0.29296876,0.22461 a 0.1062785,0.1062785 0 0 1 -0.001953,0 c -0.0385816,0.0952 -0.0566406,0.26734 -0.0566406,0.75781 0,0.27908 0.00839,0.4589 0.0175781,0.55078 0.0246174,0.20693 0.0682368,0.28296 0.18554688,0.34961 0.14421116,0.0828 0.40491662,0.11523 1.26562502,0.11523 0.4849453,0 0.7178574,-0.0225 0.8769531,-0.0723 0.1056862,-0.0343 0.1615934,-0.0758 0.2011719,-0.14649 0.039578,-0.0707 0.0625,-0.18209 0.0625,-0.35156 0,-0.0137 -9.306e-4,-0.0703 -0.00195,-0.10156 H 2.5605469 c -0.00218,0.0373 2.809e-4,0.0777 -0.00977,0.11328 -0.019219,0.0682 -0.075639,0.13512 -0.1464843,0.16601 -0.1416907,0.0618 -0.3246018,0.0508 -0.6933594,0.0508 -0.1770566,0 -0.3110808,5.5e-4 -0.4199219,-0.01 -0.1088411,-0.0103 -0.1978409,-0.0307 -0.2695312,-0.0879 -0.0716904,-0.0572 -0.10527166,-0.14315 -0.11914065,-0.23633 -0.013869,-0.0932 -0.0136719,-0.20222 -0.0136719,-0.34375 0,-0.16973 0.004296,-0.29092 0.0234375,-0.38672 0.0191419,-0.0958 0.0577091,-0.17341 0.11914062,-0.22461 a 0.1062785,0.1062785 0 0 1 0.00195,0 c 0.054796,-0.0438 0.126279,-0.0652 0.2265625,-0.0762 0.1002836,-0.0109 0.238146,-0.0137 0.4492188,-0.0137 0.2132191,0 0.3701225,0.005 0.484375,0.0156 0.1142525,0.0109 0.1829758,0.0108 0.2539062,0.0723 0.02946,0.0253 0.061014,0.0717 0.072266,0.11719 0.00453,0.0183 0.00359,0.0463 0.00586,0.0664 h 0.46875 v -0.004 c 0,-0.17032 -0.017725,-0.28604 -0.048828,-0.36133 -0.031104,-0.0753 -0.071302,-0.117 -0.1484375,-0.15625 -0.1246325,-0.065 -0.3106883,-0.0898 -0.8964844,-0.0898 z" />
          <path
             sodipodi:type="inkscape:offset"
             inkscape:radius="-0.11051005"
             inkscape:original="M 4.8535156 295.2168 C 3.9311293 295.2168 3.7252489 295.24016 3.5566406 295.36914 C 3.3880324 295.49808 3.3378906 295.72102 3.3378906 296.33594 C 3.3378906 296.98393 3.3847267 297.2037 3.5566406 297.33594 C 3.7252489 297.46487 3.9303766 297.48828 4.859375 297.48828 C 5.7718432 297.48828 5.9798293 297.46492 6.1484375 297.33594 C 6.3170458 297.207 6.3671875 296.98437 6.3671875 296.34961 C 6.3671875 295.71815 6.3170454 295.49808 6.1484375 295.36914 C 5.9798293 295.24021 5.7759019 295.2168 4.8535156 295.2168 z M 4.8535156 295.78711 C 5.4684398 295.78711 5.5411485 295.79752 5.6171875 295.88672 C 5.6766965 295.95942 5.6953125 296.08481 5.6953125 296.41211 C 5.6953125 296.6799 5.6717421 296.77644 5.5957031 296.83594 C 5.5064401 296.90204 5.3982602 296.91602 4.859375 296.91602 C 4.3039596 296.91602 4.1986382 296.90524 4.109375 296.83594 C 4.03003 296.77314 4.0097656 296.68457 4.0097656 296.41016 C 4.0097656 296.12915 4.022827 296.00377 4.0625 295.92773 C 4.128621 295.7988 4.1923068 295.78711 4.8535156 295.78711 z "
             xlink:href="#path4760-0-1"
             style="fill:none;stroke:#000000;stroke-width:0.03887964;stroke-miterlimit:4;stroke-dasharray:none;stroke-opacity:1"
             id="path4879"
             inkscape:href="#path4760-0-1"
             d="m 4.8535156,295.32812 c -0.4602602,0 -0.7405537,0.005 -0.9179687,0.0254 -0.1774151,0.0207 -0.242879,0.0503 -0.3125,0.10351 -0.06409,0.049 -0.1008643,0.10557 -0.1308594,0.23828 -0.029995,0.13272 -0.042969,0.33617 -0.042969,0.64063 0,0.32133 0.011304,0.53346 0.041016,0.66992 0.029711,0.13646 0.066461,0.19115 0.1328125,0.24219 0.06969,0.0533 0.134434,0.0828 0.3125,0.10351 0.178066,0.0208 0.4602572,0.0254 0.9238281,0.0254 0.455291,0 0.7334528,-0.005 0.9101562,-0.0254 0.1767035,-0.0207 0.2430554,-0.0504 0.3125,-0.10351 0.064124,-0.049 0.1007919,-0.10505 0.1308594,-0.24024 0.030068,-0.13518 0.042969,-0.34373 0.042969,-0.6582 0,-0.31281 -0.012948,-0.52026 -0.042969,-0.6543 -0.030021,-0.13403 -0.066455,-0.18903 -0.1308594,-0.23828 -0.06979,-0.0534 -0.1336559,-0.0828 -0.3105468,-0.10351 -0.176891,-0.0208 -0.4577105,-0.0254 -0.9179688,-0.0254 z m 0,0.34766 c 0.3080857,0 0.4793656,0.002 0.5976563,0.0176 0.1182907,0.0156 0.2020761,0.0649 0.25,0.12109 a 0.1105211,0.1105211 0 0 1 0.00195,0.002 c 0.045902,0.0561 0.070306,0.12869 0.083984,0.2207 0.013678,0.092 0.019531,0.20925 0.019531,0.375 0,0.13714 -0.00612,0.23501 -0.025391,0.31641 -0.019268,0.0814 -0.060688,0.1511 -0.1171875,0.19531 a 0.1105211,0.1105211 0 0 1 -0.00195,0 c -0.058796,0.0435 -0.1383933,0.0731 -0.2539063,0.0859 -0.1155129,0.0129 -0.2784299,0.0176 -0.5488281,0.0176 -0.2784227,0 -0.443568,-0.003 -0.5605469,-0.0156 -0.1169788,-0.0124 -0.1987432,-0.042 -0.2578125,-0.0879 a 0.1105211,0.1105211 0 0 1 0,-0.002 c -0.055907,-0.0442 -0.1001889,-0.114 -0.1191406,-0.19532 -0.018952,-0.0813 -0.023437,-0.17648 -0.023437,-0.3164 0,-0.28444 0.00829,-0.42182 0.066406,-0.53321 0.019508,-0.038 0.045699,-0.0801 0.089844,-0.11328 0.044145,-0.0331 0.097074,-0.0513 0.1601563,-0.0625 0.1261642,-0.0225 0.3074162,-0.0254 0.6386718,-0.0254 z" />
          <path
             d="m 4.8526161,295.21609 c -0.9223863,0 -1.127361,0.0231 -1.2959693,0.15208 -0.1686082,0.12894 -0.2181989,0.35375 -0.2181989,0.96867 0,0.64799 0.046285,0.86619 0.2181989,0.99843 0.1686083,0.12893 0.373583,0.15208 1.3025814,0.15208 0.9124682,0 1.120749,-0.0231 1.2893572,-0.15208 0.1686083,-0.12894 0.2181989,-0.35044 0.2181989,-0.9852 0,-0.63146 -0.049591,-0.85296 -0.2181989,-0.9819 -0.1686082,-0.12893 -0.373583,-0.15208 -1.2959693,-0.15208 z m 0,0.57195 c 0.6149242,0 0.6876572,0.01 0.7636962,0.0992 0.059509,0.0727 0.079345,0.19836 0.079345,0.52566 0,0.26779 -0.023142,0.36367 -0.099181,0.42317 -0.089263,0.0661 -0.1983627,0.0793 -0.7372479,0.0793 -0.5554154,0 -0.6612088,-0.01 -0.750472,-0.0793 -0.079345,-0.0628 -0.099181,-0.15207 -0.099181,-0.42648 0,-0.28101 0.013224,-0.40664 0.052897,-0.48268 0.066121,-0.12893 0.1289357,-0.13885 0.7901445,-0.13885 z"
             style="fill:none;stroke:#000000;stroke-width:0.03887964;stroke-miterlimit:4;stroke-dasharray:none;stroke-opacity:1"
             id="path4760-0-1"
             inkscape:connector-curvature="0" />
          <path
             sodipodi:type="inkscape:offset"
             inkscape:radius="-0.11585014"
             inkscape:original="M 6.6328125 295.25 L 6.6328125 297.45508 L 7.2929688 297.45508 L 7.2773438 295.80469 L 7.3964844 295.80469 L 8.2265625 297.45508 L 8.7851562 297.45508 L 9.6152344 295.80469 L 9.7265625 295.80469 L 9.7109375 297.45508 L 10.371094 297.45508 L 10.371094 295.25 L 9.1621094 295.25 L 8.5039062 296.68164 L 7.8496094 295.25 L 6.6328125 295.25 z "
             xlink:href="#path4762-4-1"
             style="fill:none;stroke:#000000;stroke-width:0.03887964;stroke-miterlimit:4;stroke-dasharray:none;stroke-opacity:1"
             id="path4881"
             inkscape:href="#path4762-4-1"
             d="m 6.7480469,295.36523 v 1.97461 h 0.4277343 l -0.013672,-1.5332 a 0.11586173,0.11586173 0 0 1 0.1152344,-0.11719 H 7.3964844 A 0.11586173,0.11586173 0 0 1 7.5,295.75195 l 0.7988281,1.58789 h 0.4140625 l 0.7988282,-1.58789 a 0.11586173,0.11586173 0 0 1 0.1035156,-0.0625 h 0.1113281 a 0.11586173,0.11586173 0 0 1 0.1152344,0.11719 l -0.013672,1.5332 h 0.427734 v -1.97461 H 9.2363281 l -0.6269531,1.36524 a 0.11586173,0.11586173 0 0 1 -0.2109375,0 l -0.6230469,-1.36524 z" />
          <path
             d="m 6.6326626,295.24915 v 2.20513 h 0.6612088 l -0.01653,-1.64971 H 7.396359 l 0.8298171,1.64971 h 0.5587214 l 0.8298171,-1.64971 h 0.1124055 l -0.01653,1.64971 h 0.6612079 v -2.20513 H 9.1617863 l -0.6579027,1.43152 -0.6545968,-1.43152 z"
             style="fill:none;stroke:#000000;stroke-width:0.03887964;stroke-miterlimit:4;stroke-dasharray:none;stroke-opacity:1"
             id="path4762-4-1"
             inkscape:connector-curvature="0" />
          <path
             sodipodi:type="inkscape:offset"
             inkscape:radius="-0.11989866"
             inkscape:original="M 10.681641 295.25 L 10.681641 297.45508 L 12.267578 297.45508 C 13.008132 297.45208 13.044293 297.4469 13.169922 297.4043 C 13.364979 297.3382 13.449219 297.17736 13.449219 296.86328 C 13.449219 296.50954 13.359294 296.37967 13.068359 296.33008 C 13.289864 296.26728 13.365234 296.1383 13.365234 295.82422 C 13.365234 295.42419 13.247077 295.28622 12.886719 295.25977 C 12.787539 295.25277 12.787982 295.253 12.265625 295.25 L 10.681641 295.25 z M 11.320312 295.76758 L 12.265625 295.76758 C 12.569781 295.77058 12.578868 295.77034 12.615234 295.77734 C 12.684664 295.79384 12.714844 295.84491 12.714844 295.9375 C 12.714844 296.0169 12.692168 296.07197 12.642578 296.0918 C 12.599598 296.1116 12.50366 296.11914 12.265625 296.11914 L 11.320312 296.11914 L 11.320312 295.76758 z M 11.320312 296.55859 L 12.267578 296.55859 C 12.657692 296.56159 12.658346 296.56136 12.691406 296.56836 C 12.767446 296.58486 12.796875 296.63187 12.796875 296.73438 C 12.796875 296.82698 12.77496 296.8753 12.71875 296.89844 C 12.66916 296.92154 12.66761 296.92238 12.267578 296.92578 L 11.320312 296.92578 L 11.320312 296.55859 z "
             xlink:href="#path4764-2-0"
             style="fill:none;stroke:#000000;stroke-width:0.03887964;stroke-miterlimit:4;stroke-dasharray:none;stroke-opacity:1"
             id="path4883"
             inkscape:href="#path4764-2-0"
             d="m 10.800781,295.36914 v 1.9668 h 1.466797 c 0.370005,-0.002 0.562976,-0.005 0.673828,-0.0117 0.110852,-0.007 0.128552,-0.0126 0.189453,-0.0332 0.0745,-0.0253 0.11245,-0.0572 0.144532,-0.11914 0.03208,-0.0619 0.05469,-0.16228 0.05469,-0.3086 0,-0.16671 -0.02522,-0.26079 -0.06055,-0.31055 -0.03533,-0.0498 -0.09031,-0.0813 -0.220703,-0.10351 a 0.11991065,0.11991065 0 0 1 -0.01367,-0.23438 c 0.09346,-0.0265 0.13306,-0.054 0.16211,-0.10351 0.02905,-0.0495 0.04883,-0.13966 0.04883,-0.28711 0,-0.18821 -0.03059,-0.29009 -0.07617,-0.34375 -0.04558,-0.0537 -0.125062,-0.0894 -0.291016,-0.10156 -0.09902,-0.007 -0.09089,-0.007 -0.613281,-0.01 z m 0.511719,0.2793 a 0.11991065,0.11991065 0 0 1 0.0078,0 h 0.945313 a 0.11991065,0.11991065 0 0 1 0.002,0 c 0.152035,0.002 0.230034,7e-4 0.277344,0.002 0.04731,0.001 0.0735,0.006 0.09375,0.01 a 0.11991065,0.11991065 0 0 1 0.0039,0 c 0.05799,0.0138 0.117459,0.0519 0.150391,0.10546 0.03293,0.0536 0.04101,0.11256 0.04101,0.17188 0,0.0511 -0.0055,0.10017 -0.02734,0.14844 -0.02152,0.0475 -0.06399,0.093 -0.117188,0.11523 -0.09319,0.0421 -0.185442,0.0371 -0.423828,0.0371 h -0.945313 a 0.11991065,0.11991065 0 0 1 -0.11914,-0.11914 v -0.35156 a 0.11991065,0.11991065 0 0 1 0.111328,-0.11914 z m 0,0.79101 a 0.11991065,0.11991065 0 0 1 0.0078,0 h 0.947266 c 0.195033,0.001 0.292334,7.1e-4 0.347656,0.002 0.05532,0.001 0.08462,0.006 0.101563,0.01 0.05795,0.0126 0.120688,0.0474 0.15625,0.10352 0.03556,0.0562 0.04297,0.11696 0.04297,0.17969 0,0.0557 -0.0051,0.10687 -0.0293,0.1582 -0.02418,0.0513 -0.07285,0.0965 -0.123047,0.11719 -0.02564,0.0114 -0.06978,0.0255 -0.13086,0.0293 -0.06388,0.004 -0.163182,0.004 -0.363281,0.006 a 0.11991065,0.11991065 0 0 1 -0.002,0 h -0.947266 a 0.11991065,0.11991065 0 0 1 -0.11914,-0.11914 v -0.36719 a 0.11991065,0.11991065 0 0 1 0.111328,-0.11914 z" />
          <path
             d="m 10.681275,297.45428 h 1.586901 c 0.740554,-0.003 0.776921,-0.007 0.90255,-0.0496 0.195057,-0.0661 0.277708,-0.22811 0.277708,-0.54219 0,-0.35374 -0.08926,-0.48268 -0.380195,-0.53227 0.221505,-0.0628 0.297544,-0.19175 0.297544,-0.50583 0,-0.40003 -0.119018,-0.53888 -0.479376,-0.56533 -0.09918,-0.007 -0.09918,-0.007 -0.621537,-0.01 h -1.583595 z m 0.638067,-1.33564 v -0.35044 h 0.945528 c 0.304156,0.003 0.314075,0.003 0.350441,0.01 0.06943,0.0165 0.09918,0.0661 0.09918,0.15869 0,0.0794 -0.02314,0.13555 -0.07273,0.15538 -0.04298,0.0198 -0.138854,0.0265 -0.376889,0.0265 z m 0,0.80668 v -0.36697 h 0.948834 c 0.390114,0.003 0.390114,0.003 0.423174,0.01 0.07604,0.0165 0.105793,0.0628 0.105793,0.16531 0,0.0926 -0.02314,0.14216 -0.07935,0.1653 -0.04959,0.0231 -0.04959,0.0231 -0.449622,0.0265 z"
             style="fill:none;stroke:#000000;stroke-width:0.03887964;stroke-miterlimit:4;stroke-dasharray:none;stroke-opacity:1"
             id="path4764-2-0"
             inkscape:connector-curvature="0" />
          <path
             sodipodi:type="inkscape:offset"
             inkscape:radius="-0.11657397"
             inkscape:original="M 13.683594 295.25 L 13.683594 297.45508 L 14.388672 297.45508 L 14.388672 295.25 L 13.683594 295.25 z "
             xlink:href="#path4766-1-8"
             style="fill:none;stroke:#000000;stroke-width:0.03887964;stroke-miterlimit:4;stroke-dasharray:none;stroke-opacity:1"
             id="path4885"
             inkscape:href="#path4766-1-8"
             d="m 13.800781,295.36719 v 1.9707 h 0.470703 v -1.9707 z" />
          <path
             d="m 13.683835,295.24915 v 2.20513 h 0.704187 v -2.20513 z"
             style="fill:none;stroke:#000000;stroke-width:0.03887964;stroke-miterlimit:4;stroke-dasharray:none;stroke-opacity:1"
             id="path4766-1-8"
             inkscape:connector-curvature="0" />
        </g>
      </g>
    </g>
  </g>
</svg>
